<svg viewBox="0 0 166 166" xmlns="http://www.w3.org/2000/svg" xmlns:xlink="http://www.w3.org/1999/xlink"><style>:root&gt;svg{display:none}:root&gt;svg:target{display:block}</style><svg fill="none" viewBox="0 0 24 24" id="css--calendar" xmlns="http://www.w3.org/2000/svg"><path d="M3 10h18v9a3 3 0 01-3 3H6a3 3 0 01-3-3v-9zm18-1V4h-2v2h-4V4H9v2H5V4H3v5h18z" fill="#fff"/><path fill="#fff" d="M16 2h2v3h-2zM6 2h2v3H6z"/><path fill="#1738A0" d="M5 12h4v3H5zm0 5h4v3H5zm5-5h4v3h-4zm0 5h4v3h-4zm5-5h4v3h-4zm0 5h4v3h-4z"/></svg><svg fill="none" viewBox="0 0 24 24" id="css--calendar-orange" xmlns="http://www.w3.org/2000/svg"><path d="M3 10h18v9a3 3 0 01-3 3H6a3 3 0 01-3-3v-9zm18-1V4h-2v2h-4V4H9v2H5V4H3v5h18z" fill="#EC7708"/><path fill="#EC7708" d="M16 2h2v3h-2zM6 2h2v3H6z"/><path fill="#FFFDFB" d="M5 12h4v3H5zm0 5h4v3H5zm5-5h4v3h-4zm0 5h4v3h-4zm5-5h4v3h-4zm0 5h4v3h-4z"/></svg><svg fill="none" viewBox="0 0 32 32" id="css--carbon_warning" xmlns="http://www.w3.org/2000/svg"><path d="M16 2a14 14 0 100 28 14 14 0 000-28zm0 26a12 12 0 110-24 12 12 0 010 24z" fill="#EC7708"/><path d="M15 8h2v11h-2V8zm1 14a1.5 1.5 0 100 3 1.5 1.5 0 000-3z" fill="#EC7708"/></svg><svg fill="none" viewBox="0 0 40 40" id="css--doc" xmlns="http://www.w3.org/2000/svg"><path d="M9.063 25.625H6.874a.625.625 0 00-.625.625v7.5a.625.625 0 00.625.625h2.188a4.375 4.375 0 100-8.75zm0 7.5H7.5v-6.25h1.563a3.125 3.125 0 010 6.25zm11.25-7.5c-2.235 0-4.063 1.969-4.063 4.375 0 2.406 1.828 4.375 4.063 4.375 2.234 0 4.062-1.969 4.062-4.375 0-2.406-1.828-4.375-4.063-4.375zm0 7.5c-1.547 0-2.813-1.406-2.813-3.125s1.266-3.125 2.813-3.125c1.546 0 2.812 1.406 2.812 3.125s-1.266 3.125-2.813 3.125zm13.28-.656a.64.64 0 01-.046.89 3.906 3.906 0 01-2.61 1.016c-2.234 0-4.062-1.969-4.062-4.375 0-2.406 1.828-4.375 4.063-4.375a3.907 3.907 0 012.609 1.016.64.64 0 01.047.89.656.656 0 01-.89.047 2.531 2.531 0 00-1.767-.703c-1.546 0-2.812 1.406-2.812 3.125s1.266 3.125 2.813 3.125a2.53 2.53 0 001.765-.703.656.656 0 01.89.047zM7.5 20.625A.625.625 0 008.125 20V6.25a.625.625 0 01.625-.625h14.375v8.125a.625.625 0 00.625.625h8.125V20a.625.625 0 101.25 0v-6.234a.703.703 0 00-.188-.454l-8.75-8.734a.562.562 0 00-.437-.203h-15A1.875 1.875 0 006.875 6.25V20a.625.625 0 00.625.625zm16.875-14.11l6.61 6.61h-6.61v-6.61z" fill="#1738A0"/></svg><svg fill="none" viewBox="0 0 20 20" id="css--email-sobaka" xmlns="http://www.w3.org/2000/svg"><path d="M10 0C4.48 0 0 4.48 0 10s4.48 10 10 10h5v-2h-5c-4.34 0-8-3.66-8-8s3.66-8 8-8 8 3.66 8 8v1.43c0 .79-.71 1.57-1.5 1.57s-1.5-.78-1.5-1.57V10c0-2.76-2.24-5-5-5s-5 2.24-5 5 2.24 5 5 5c1.38 0 2.64-.56 3.54-1.47.65.89 1.77 1.47 2.96 1.47 1.97 0 3.5-1.6 3.5-3.57V10c0-5.52-4.48-10-10-10zm0 13c-1.66 0-3-1.34-3-3s1.34-3 3-3 3 1.34 3 3-1.34 3-3 3z" fill="#EC7708"/></svg><svg fill="none" viewBox="0 0 29 22" id="css--eye-glasses" xmlns="http://www.w3.org/2000/svg"><path d="M7.621 22c-3.312 0-6.006-2.576-6.006-5.743 0-3.167 2.694-5.74 6.006-5.74 3.312 0 6.007 2.576 6.007 5.74C13.628 19.42 10.933 22 7.62 22zm0-10.575c-2.813 0-5.102 2.168-5.102 4.834 0 2.665 2.29 4.834 5.102 4.834 2.813 0 5.103-2.168 5.103-4.836s-2.289-4.832-5.103-4.832zM21.374 22c-3.312 0-6.007-2.576-6.007-5.742 0-3.165 2.695-5.74 6.007-5.74s6.006 2.575 6.006 5.739c0 3.163-2.694 5.742-6.006 5.742zm0-10.576c-2.814 0-5.103 2.169-5.103 4.834 0 2.666 2.289 4.835 5.103 4.835 2.814 0 5.103-2.169 5.103-4.836 0-2.668-2.29-4.833-5.103-4.833z" fill="#1738A0"/><path d="M16.9 13.58a.45.45 0 01-.19-.042 5.275 5.275 0 00-4.42 0 .45.45 0 01-.65-.389.453.453 0 01.266-.432 6.18 6.18 0 015.187 0 .454.454 0 01-.192.863zM2.067 15.41a.452.452 0 01-.197-.045l-1.008-.49a1.537 1.537 0 01-.782-1.873L3.614 1.154A1.673 1.673 0 015.462.025a1.668 1.668 0 011.406 1.65v.479a.454.454 0 01-.452.453.451.451 0 01-.452-.454v-.479a.769.769 0 00-.641-.761.763.763 0 00-.85.516L.943 13.277a.636.636 0 00.315.782l1.009.49a.453.453 0 01-.198.861h-.002zm24.866 0a.451.451 0 01-.409-.65.453.453 0 01.21-.212l1.01-.49a.63.63 0 00.32-.767L24.52 1.412a.767.767 0 00-.852-.494.765.765 0 00-.633.755v.48a.454.454 0 01-.452.453.451.451 0 01-.452-.454v-.479a1.677 1.677 0 011.398-1.65 1.665 1.665 0 011.852 1.114l3.544 11.879a1.539 1.539 0 01-.787 1.858l-1.009.49a.45.45 0 01-.196.045z" fill="#1738A0"/></svg><svg fill="none" viewBox="0 0 12 24" id="css--facebook" xmlns="http://www.w3.org/2000/svg"><path d="M9.81 3.985H12V.169C11.622.117 10.322 0 8.808 0 5.65 0 3.486 1.987 3.486 5.639V9H0v4.266h3.486V24h4.273V13.267h3.345l.531-4.266H7.758V6.062c.001-1.233.333-2.077 2.051-2.077z" fill="#6D85CD"/></svg><svg fill="none" viewBox="0 0 12 24" id="css--fb-send" xmlns="http://www.w3.org/2000/svg"><path d="M9.81 3.985H12V.169C11.622.117 10.322 0 8.808 0 5.65 0 3.486 1.987 3.486 5.639V9H0v4.266h3.486V24h4.273V13.267h3.345l.531-4.266H7.758V6.062c.001-1.233.333-2.077 2.051-2.077z" fill="#1738A0"/></svg><svg fill="none" viewBox="0 0 12 22" id="css--left-white" xmlns="http://www.w3.org/2000/svg"><path d="M.262 1.512A.883.883 0 01.894 0a.902.902 0 01.632.26l10.212 10.114a.883.883 0 010 1.252L1.526 21.741A.887.887 0 01.894 22a.901.901 0 01-.632-.26.883.883 0 010-1.252L9.576 11 .262 1.512z" fill="#fff"/></svg><svg fill="none" viewBox="0 0 12 14" id="css--location" xmlns="http://www.w3.org/2000/svg"><path d="M6 0a6 6 0 016 6c0 2.867-1.935 5.506-5.732 7.922a.5.5 0 01-.536 0C1.935 11.506 0 8.867 0 6a6 6 0 016-6zm0 1a5 5 0 00-5 5c0 2.325 1.54 4.558 4.68 6.692l.32.213.32-.213C9.46 10.558 11 8.325 11 6a5 5 0 00-5-5zm0 3.5a1.5 1.5 0 110 3 1.5 1.5 0 010-3z" fill="#fff"/></svg><svg fill="none" viewBox="0 0 18 18" id="css--location-map" xmlns="http://www.w3.org/2000/svg"><path d="M18 7.714s-3.912.874-5.727 2.572C9.925 12.48 9 18 9 18s-.925-5.52-3.273-7.714C3.912 8.588 0 7.714 0 7.714.41 3.857 4.03 0 9 0s8.59 3.857 9 7.714z" fill="#EC7708"/></svg><svg fill="none" viewBox="0 0 53 53" id="css--logo" xmlns="http://www.w3.org/2000/svg"><path d="M19 1h15v11.77l-2.727 2.615V18L34 20.615V52H19V20.615L21.727 18v-2.615L19 12.769V1zm-2 3H4v13s1.172-2.336 3.5-3.5c3-1.5 9.5-1.227 9.5-1.227V4zm19 0h13v13s-1.172-2.336-3.5-3.5c-3-1.5-9.5-1.227-9.5-1.227V4zM16 24.182s-1.197 3.545-6 3.545C5.2 27.727 4 23 4 23v26h12V24.182zm21 0s1.197 3.545 6 3.545c4.8 0 6-4.727 6-4.727v26H37V24.182z" fill="#1738A0"/><path d="M16 14h1v2h-1v-2zm-6.023 6.573a1 1 0 11-.582-1.914l.582 1.914zM16 16h-3.388v-2H16v2zm-3.388 0c-2.155 0-3.519.575-4.345 1.31-.825.733-1.216 1.715-1.262 2.736-.047 1.034.264 2.064.793 2.816C8.326 23.612 9 24 9.686 24v2c-1.508 0-2.731-.862-3.523-1.987-.791-1.123-1.223-2.593-1.156-4.059.067-1.48.647-2.997 1.931-4.139C8.22 14.675 10.103 14 12.612 14v2zm-2.926 8c2.413 0 3.172-1.388 3.143-2.264-.016-.472-.235-.872-.62-1.11-.386-.237-1.094-.4-2.232-.053l-.582-1.914c1.52-.462 2.857-.355 3.863.265 1.01.621 1.533 1.668 1.57 2.744.074 2.22-1.823 4.332-5.142 4.332v-2zM37 14h-1v2h1v-2zm6.023 6.573a1 1 0 10.582-1.914l-.582 1.914zM37 16h3.388v-2H37v2zm3.388 0c2.155 0 3.519.575 4.345 1.31.825.733 1.216 1.715 1.262 2.736.047 1.034-.264 2.064-.793 2.816C44.674 23.612 44 24 43.314 24v2c1.508 0 2.731-.862 3.523-1.987.791-1.123 1.223-2.593 1.156-4.059-.067-1.48-.647-2.997-1.931-4.139C44.78 14.675 42.897 14 40.388 14v2zm2.926 8c-2.413 0-3.172-1.388-3.143-2.264.016-.472.235-.872.62-1.11.387-.237 1.094-.4 2.232-.053l.582-1.914c-1.52-.462-2.857-.355-3.863.265-1.01.621-1.533 1.668-1.57 2.744-.074 2.22 1.823 4.332 5.142 4.332v-2z" fill="#1738A0"/><path stroke="#1738A0" stroke-width="2" d="M1 1h51v51H1z"/></svg><svg fill="none" viewBox="0 0 46 46" id="css--menu" xmlns="http://www.w3.org/2000/svg"><path stroke="#1738A0" stroke-linecap="round" d="M10.5 12.5h25m-25 10h25m-25 10h25"/><rect x=".5" y=".5" width="45" height="45" rx="5.5" stroke="#1738A0"/></svg><svg fill="none" viewBox="0 0 9 17" id="css--page-left" xmlns="http://www.w3.org/2000/svg"><path d="M.196 1.168A.693.693 0 01.413.052.66.66 0 011.144.2l7.66 7.816a.693.693 0 010 .968l-7.66 7.815A.666.666 0 01.67 17a.66.66 0 01-.474-.2.693.693 0 010-.968L7.182 8.5.196 1.168z" fill="#04091A"/></svg><svg fill="none" viewBox="0 0 9 17" id="css--page-right" xmlns="http://www.w3.org/2000/svg"><path d="M8.804 15.832a.693.693 0 01-.217 1.116.66.66 0 01-.731-.149L.196 8.984a.693.693 0 010-.968L7.856.2a.665.665 0 01.73-.148.693.693 0 01.217 1.116L1.819 8.5l6.986 7.332z" fill="#04091A"/></svg><svg fill="none" viewBox="0 0 40 40" id="css--pdf" xmlns="http://www.w3.org/2000/svg"><path d="M7.5 20.625A.625.625 0 008.125 20V6.25a.625.625 0 01.625-.625h14.375v8.125a.625.625 0 00.625.625h8.125V20a.625.625 0 101.25 0v-6.234a.703.703 0 00-.188-.454l-8.75-8.734a.562.562 0 00-.437-.203h-15A1.875 1.875 0 006.875 6.25V20a.625.625 0 00.625.625zm16.875-14.11l6.61 6.61h-6.61v-6.61zM10 25.626H7.5a.625.625 0 00-.625.625v7.5a.625.625 0 001.25 0v-1.875H10a3.125 3.125 0 100-6.25zm0 5H8.125v-3.75H10a1.875 1.875 0 010 3.75zm24.375-4.375a.625.625 0 01-.625.625H30V30h3.125a.625.625 0 010 1.25H30v2.5a.625.625 0 11-1.25 0v-7.5a.625.625 0 01.625-.625h4.375a.625.625 0 01.625.625zM20 25.625h-2.188a.625.625 0 00-.625.625v7.5a.625.625 0 00.625.625H20a4.375 4.375 0 100-8.75zm0 7.5h-1.563v-6.25H20a3.125 3.125 0 010 6.25z" fill="#EC7708"/></svg><svg fill="none" viewBox="0 0 18 19" id="css--phone" xmlns="http://www.w3.org/2000/svg"><path fill-rule="evenodd" clip-rule="evenodd" d="M2.12.575a1.963 1.963 0 012.937.183l2.02 2.595c.37.476.5 1.095.354 1.68l-.616 2.464a.763.763 0 00.2.724l2.765 2.764a.763.763 0 00.724.2l2.463-.615a1.963 1.963 0 011.68.354l2.595 2.019a1.963 1.963 0 01.183 2.938l-1.163 1.163c-.833.832-2.077 1.198-3.237.79A20.963 20.963 0 015.14 12.86 20.965 20.965 0 01.167 4.975c-.408-1.159-.042-2.404.79-3.237L2.121.575z" fill="#EC7708"/></svg><svg fill="none" viewBox="0 0 12 11" id="css--platforma" xmlns="http://www.w3.org/2000/svg"><path d="M11 0H0v11L11 0zM1 11h11V0L1 11z" fill="#6D85CD"/></svg><svg fill="none" viewBox="0 0 17 17" id="css--plus" xmlns="http://www.w3.org/2000/svg"><path d="M8.5 16.167V8.5m0 0V.833m0 7.667h7.667M8.5 8.5H.833" stroke="#000" stroke-linecap="round"/></svg><svg fill="none" viewBox="0 0 9 17" id="css--right" xmlns="http://www.w3.org/2000/svg"><path d="M.196 1.168A.693.693 0 01.413.052.66.66 0 011.144.2l7.66 7.816a.693.693 0 010 .968l-7.66 7.815A.666.666 0 01.67 17a.66.66 0 01-.474-.2.693.693 0 010-.968L7.182 8.5.196 1.168z" fill="#1738A0"/></svg><svg fill="none" viewBox="0 0 22 22" id="css--search" xmlns="http://www.w3.org/2000/svg"><path d="M21.866 21.218l-6.694-6.694a8.663 8.663 0 002.245-5.816C17.417 3.907 13.51 0 8.708 0 3.907 0 0 3.907 0 8.708c0 4.802 3.907 8.709 8.708 8.709a8.663 8.663 0 005.816-2.245l6.694 6.694a.457.457 0 00.648 0 .458.458 0 000-.648zM8.708 16.5C4.412 16.5.917 13.005.917 8.708.917 4.412 4.412.917 8.708.917S16.5 4.412 16.5 8.708c0 4.297-3.496 7.792-7.792 7.792z" fill="#1738A0"/></svg><svg fill="none" viewBox="0 0 22 22" id="css--search-orange" xmlns="http://www.w3.org/2000/svg"><path d="M21.866 21.218l-6.694-6.694a8.663 8.663 0 002.245-5.816C17.417 3.907 13.51 0 8.708 0 3.907 0 0 3.907 0 8.708c0 4.802 3.907 8.709 8.708 8.709a8.663 8.663 0 005.816-2.245l6.694 6.694a.457.457 0 00.648 0 .458.458 0 000-.648zM8.708 16.5C4.412 16.5.917 13.005.917 8.708.917 4.412 4.412.917 8.708.917S16.5 4.412 16.5 8.708c0 4.297-3.496 7.792-7.792 7.792z" fill="#F0993D"/></svg><svg fill="none" viewBox="0 0 13 6" id="css--show_more-lang" xmlns="http://www.w3.org/2000/svg"><path d="M11.858.14a.444.444 0 01.147.326c0 .122-.053.24-.146.326L6.394 5.85a.59.59 0 01-.78 0L.152.792A.462.462 0 01.04.642.43.43 0 01.147.136.537.537 0 01.86.142l5.145 4.763L11.152.141a.522.522 0 01.353-.135c.133 0 .26.048.354.134h-.001z" fill="#1738A0"/></svg><svg fill="none" viewBox="0 0 9 17" id="css--slider-next" xmlns="http://www.w3.org/2000/svg"><path d="M.196 1.168A.693.693 0 01.413.052.66.66 0 011.144.2l7.66 7.816a.693.693 0 010 .968l-7.66 7.815A.666.666 0 01.67 17a.66.66 0 01-.474-.2.693.693 0 010-.968L7.182 8.5.196 1.168z" fill="#04091A"/></svg><svg fill="none" viewBox="0 0 9 17" id="css--slider-prev" xmlns="http://www.w3.org/2000/svg"><path d="M8.804 15.832a.693.693 0 01-.217 1.116.66.66 0 01-.731-.149L.196 8.984a.693.693 0 010-.968L7.856.2a.665.665 0 01.73-.148.693.693 0 01.217 1.116L1.819 8.5l6.986 7.332z" fill="#04091A"/></svg><svg fill="none" viewBox="0 0 24 21" id="css--telegram" xmlns="http://www.w3.org/2000/svg"><path d="M9.417 13.85l-.397 5.528c.568 0 .814-.241 1.11-.531l2.662-2.52 5.519 4c1.012.56 1.725.265 1.998-.92L23.93 2.603v-.001c.322-1.481-.54-2.06-1.526-1.697l-21.29 8.07c-1.454.558-1.432 1.36-.248 1.723l5.443 1.676 12.644-7.832c.595-.39 1.136-.174.69.216L9.418 13.85z" fill="#6D85CD"/></svg><svg fill="none" viewBox="0 0 24 21" id="css--tg-send" xmlns="http://www.w3.org/2000/svg"><path d="M9.417 13.85l-.397 5.528c.568 0 .814-.241 1.11-.531l2.662-2.52 5.519 4c1.012.56 1.725.265 1.998-.92L23.93 2.603v-.001c.322-1.481-.54-2.06-1.526-1.697l-21.29 8.07c-1.454.558-1.432 1.36-.248 1.723l5.443 1.676 12.644-7.832c.595-.39 1.136-.174.69.216L9.418 13.85z" fill="#1738A0"/></svg><svg fill="none" viewBox="0 0 18 18" id="css--time" xmlns="http://www.w3.org/2000/svg"><path d="M9 0a9 9 0 100 18A9 9 0 009 0zm4.154 10.385H9a.692.692 0 01-.692-.693v-6.23a.692.692 0 011.384 0V9h3.462a.692.692 0 110 1.385z" fill="#EC7708"/></svg><svg fill="none" viewBox="0 0 24 20" id="css--tw-send" xmlns="http://www.w3.org/2000/svg"><path d="M21.534 5.589A9.74 9.74 0 0024 3.074c-.893.384-1.843.64-2.835.764a4.833 4.833 0 002.165-2.677 9.939 9.939 0 01-3.12 1.173A4.965 4.965 0 0016.616.8c-2.724 0-4.917 2.177-4.917 4.845 0 .384.033.753.114 1.105A14.003 14.003 0 011.671 1.683a4.828 4.828 0 00-.674 2.449c0 1.678.877 3.164 2.186 4.026A4.922 4.922 0 01.96 7.56v.053c0 2.355 1.705 4.31 3.942 4.76-.401.11-.837.16-1.29.16-.315 0-.633-.017-.931-.082a4.96 4.96 0 004.597 3.375 9.989 9.989 0 01-6.101 2.066c-.403 0-.79-.018-1.177-.066A14.014 14.014 0 007.548 20c8.683 0 14.342-7.133 13.986-14.412z" fill="#1738A0"/></svg><svg fill="none" viewBox="0 0 24 20" id="css--twitter" xmlns="http://www.w3.org/2000/svg"><path d="M21.534 5.589A9.74 9.74 0 0024 3.074c-.893.384-1.843.64-2.835.764a4.833 4.833 0 002.165-2.677 9.939 9.939 0 01-3.12 1.173A4.965 4.965 0 0016.616.8c-2.724 0-4.917 2.177-4.917 4.845 0 .384.033.753.114 1.105A14.003 14.003 0 011.671 1.683a4.828 4.828 0 00-.674 2.449c0 1.678.877 3.164 2.186 4.026A4.922 4.922 0 01.96 7.56v.053c0 2.355 1.705 4.31 3.942 4.76-.401.11-.837.16-1.29.16-.315 0-.633-.017-.931-.082a4.96 4.96 0 004.597 3.375 9.989 9.989 0 01-6.101 2.066c-.403 0-.79-.018-1.177-.066A14.014 14.014 0 007.548 20c8.683 0 14.342-7.133 13.986-14.412z" fill="#6D85CD"/></svg><svg fill="none" viewBox="0 0 166 166" id="css--virtual-play-icon" xmlns="http://www.w3.org/2000/svg"><path d="M166 83a83.003 83.003 0 01-83 83A83.002 83.002 0 010 83a83 83 0 01166 0zM70.446 52.84a5.187 5.187 0 00-8.196 4.222v51.876a5.186 5.186 0 005.558 5.171 5.19 5.19 0 002.638-.949l36.313-25.937a5.19 5.19 0 000-8.445L70.446 52.84z" fill="#fff" fill-opacity=".5"/></svg><svg fill="none" viewBox="0 0 24 15" id="css--vk" xmlns="http://www.w3.org/2000/svg"><path d="M19.916 8.713c-.388-.483-.277-.698 0-1.13.005-.004 3.208-4.367 3.538-5.847h.002c.164-.54 0-.936-.793-.936h-2.624c-.668 0-.976.34-1.141.72 0 0-1.336 3.153-3.226 5.196-.61.59-.893.78-1.226.78-.163 0-.418-.19-.418-.729V1.735c0-.646-.188-.935-.74-.935H9.16c-.419 0-.668.301-.668.582 0 .613.945.754 1.043 2.48v3.742c0 .82-.15.971-.486.971-.892 0-3.057-3.165-4.34-6.788-.259-.702-.512-.986-1.185-.986H.9c-.749 0-.9.34-.9.72 0 .673.892 4.015 4.148 8.431 2.17 3.014 5.226 4.648 8.006 4.648 1.671 0 1.876-.363 1.876-.987 0-2.88-.151-3.152.686-3.152.388 0 1.056.19 2.616 1.643 1.783 1.724 2.076 2.496 3.074 2.496h2.624c.748 0 1.127-.363.909-1.079-.5-1.505-3.871-4.6-4.023-4.808z" fill="#6D85CD"/></svg><svg fill="none" viewBox="0 0 24 15" id="css--vk-send" xmlns="http://www.w3.org/2000/svg"><path d="M19.916 8.713c-.388-.483-.277-.698 0-1.13.005-.004 3.208-4.367 3.538-5.847h.002c.164-.54 0-.936-.793-.936h-2.624c-.668 0-.976.34-1.141.72 0 0-1.336 3.153-3.226 5.196-.61.59-.893.78-1.226.78-.163 0-.418-.19-.418-.729V1.735c0-.646-.188-.935-.74-.935H9.16c-.419 0-.668.301-.668.582 0 .613.945.754 1.043 2.48v3.742c0 .82-.15.971-.486.971-.892 0-3.057-3.165-4.34-6.788-.259-.702-.512-.986-1.185-.986H.9c-.749 0-.9.34-.9.72 0 .673.892 4.015 4.148 8.431 2.17 3.014 5.226 4.648 8.006 4.648 1.671 0 1.876-.363 1.876-.987 0-2.88-.151-3.152.686-3.152.388 0 1.056.19 2.616 1.643 1.783 1.724 2.076 2.496 3.074 2.496h2.624c.748 0 1.127-.363.909-1.079-.5-1.505-3.871-4.6-4.023-4.808z" fill="#1738A0"/></svg><svg fill="none" viewBox="0 0 24 24" id="css--wa-send" xmlns="http://www.w3.org/2000/svg"><path d="M17.507 14.307l-.009.075c-2.199-1.096-2.429-1.242-2.713-.816-.197.295-.77.964-.944 1.162-.175.195-.349.21-.646.075-.3-.15-1.263-.465-2.403-1.485-.888-.795-1.484-1.77-1.66-2.07-.293-.506.32-.578.878-1.634.1-.21.05-.375-.025-.524-.075-.15-.672-1.62-.922-2.206-.24-.584-.487-.51-.672-.51-.576-.05-.997-.042-1.368.344-1.614 1.774-1.207 3.604.174 5.55 2.714 3.552 4.16 4.206 6.804 5.114.714.227 1.365.195 1.88.121.574-.091 1.767-.721 2.016-1.426.255-.705.255-1.29.18-1.425-.074-.135-.27-.21-.57-.345z" fill="#1738A0"/><path d="M20.52 3.45C12.831-3.984.106 1.406.101 11.892c0 2.096.549 4.14 1.595 5.945L0 24l6.335-1.652c7.905 4.27 17.661-1.4 17.665-10.449a11.79 11.79 0 00-3.495-8.41l.015-.04zm1.482 8.416c-.006 7.633-8.385 12.4-15.012 8.504l-.36-.214-3.75.975 1.005-3.645-.239-.375c-4.124-6.565.614-15.145 8.426-15.145a9.866 9.866 0 017.021 2.91 9.788 9.788 0 012.909 6.99z" fill="#1738A0"/></svg><svg fill="none" viewBox="0 0 24 24" id="css--whatsapp" xmlns="http://www.w3.org/2000/svg"><path d="M17.507 14.307l-.009.075c-2.199-1.096-2.429-1.242-2.713-.816-.197.295-.77.964-.944 1.162-.175.195-.349.21-.646.075-.3-.15-1.263-.465-2.403-1.485-.888-.795-1.484-1.77-1.66-2.07-.293-.506.32-.578.878-1.634.1-.21.05-.375-.025-.524-.075-.15-.672-1.62-.922-2.206-.24-.584-.487-.51-.672-.51-.576-.05-.997-.042-1.368.344-1.614 1.774-1.207 3.604.174 5.55 2.714 3.552 4.16 4.206 6.804 5.114.714.227 1.365.195 1.88.12.574-.09 1.767-.72 2.016-1.425.255-.705.255-1.29.18-1.425-.074-.135-.27-.21-.57-.345z" fill="#6D85CD"/><path d="M20.52 3.45C12.831-3.984.106 1.406.101 11.892c0 2.096.549 4.14 1.595 5.945L0 24l6.335-1.652c7.905 4.27 17.661-1.4 17.665-10.449a11.79 11.79 0 00-3.495-8.41l.015-.04zm1.482 8.416c-.006 7.633-8.385 12.4-15.012 8.504l-.36-.214-3.75.975 1.005-3.645-.239-.375c-4.124-6.565.614-15.145 8.426-15.145a9.866 9.866 0 017.021 2.91 9.788 9.788 0 012.909 6.99z" fill="#6D85CD"/></svg><svg fill="none" viewBox="0 0 24 17" id="css--youtube" xmlns="http://www.w3.org/2000/svg"><path d="M23.469 2.315l.03.186A2.97 2.97 0 0021.431.49L21.41.484C19.54 0 12.01 0 12.01 0S4.5-.01 2.61.484C1.596.764.812 1.521.527 2.481l-.005.02c-.699 3.48-.704 7.66.031 11.385l-.03-.188A2.97 2.97 0 002.59 15.71l.021.005c1.87.485 9.4.485 9.4.485s7.51 0 9.4-.485c1.015-.28 1.799-1.037 2.084-1.997l.005-.02c.318-1.619.5-3.48.5-5.383l-.001-.21.001-.22c0-1.902-.182-3.764-.531-5.57zm-13.86 9.264V4.63l6.265 3.48-6.266 3.47z" fill="#6D85CD"/></svg><svg fill="none" viewBox="0 0 24 17" id="css--yt-send" xmlns="http://www.w3.org/2000/svg"><path d="M23.469 2.315l.03.186A2.97 2.97 0 0021.431.49L21.41.484C19.54 0 12.01 0 12.01 0S4.5-.01 2.61.484C1.596.764.812 1.521.527 2.481l-.005.02c-.699 3.48-.704 7.66.031 11.385l-.03-.188A2.97 2.97 0 002.59 15.71l.021.005c1.87.485 9.4.485 9.4.485s7.51 0 9.4-.485c1.015-.28 1.799-1.037 2.084-1.997l.005-.02c.318-1.619.5-3.48.5-5.383l-.001-.21.001-.22c0-1.902-.182-3.764-.531-5.57zm-13.86 9.264V4.63l6.265 3.48-6.266 3.47z" fill="#1738A0"/></svg></svg>