<svg width="40" height="40" viewBox="0 0 40 40" fill="none" xmlns="http://www.w3.org/2000/svg">
<path d="M9.0625 25.625H6.875C6.70924 25.625 6.55027 25.6909 6.43306 25.8081C6.31585 25.9253 6.25 26.0843 6.25 26.25V33.75C6.25 33.9158 6.31585 34.0747 6.43306 34.192C6.55027 34.3092 6.70924 34.375 6.875 34.375H9.0625C10.2228 34.375 11.3356 33.9141 12.1561 33.0936C12.9766 32.2731 13.4375 31.1603 13.4375 30C13.4375 28.8397 12.9766 27.7269 12.1561 26.9064C11.3356 26.0859 10.2228 25.625 9.0625 25.625ZM9.0625 33.125H7.5V26.875H9.0625C9.8913 26.875 10.6862 27.2043 11.2722 27.7903C11.8583 28.3764 12.1875 29.1712 12.1875 30C12.1875 30.8288 11.8583 31.6237 11.2722 32.2097C10.6862 32.7958 9.8913 33.125 9.0625 33.125ZM20.3125 25.625C18.0781 25.625 16.25 27.5938 16.25 30C16.25 32.4063 18.0781 34.375 20.3125 34.375C22.5469 34.375 24.375 32.4063 24.375 30C24.375 27.5938 22.5469 25.625 20.3125 25.625ZM20.3125 33.125C18.7656 33.125 17.5 31.7188 17.5 30C17.5 28.2813 18.7656 26.875 20.3125 26.875C21.8594 26.875 23.125 28.2813 23.125 30C23.125 31.7188 21.8594 33.125 20.3125 33.125ZM33.5938 32.4688C33.7032 32.5942 33.7595 32.7573 33.7507 32.9236C33.742 33.0898 33.6689 33.2461 33.5469 33.3594C32.8325 34.0087 31.9029 34.3706 30.9375 34.375C28.7031 34.375 26.875 32.4063 26.875 30C26.875 27.5938 28.7031 25.625 30.9375 25.625C31.9029 25.6295 32.8325 25.9913 33.5469 26.6406C33.6689 26.7539 33.742 26.9102 33.7507 27.0765C33.7595 27.2427 33.7032 27.4058 33.5938 27.5313C33.4785 27.6498 33.3228 27.7206 33.1576 27.7292C32.9925 27.7379 32.8302 27.684 32.7031 27.5781C32.2283 27.1233 31.595 26.8712 30.9375 26.875C29.3906 26.875 28.125 28.2813 28.125 30C28.125 31.7188 29.3906 33.125 30.9375 33.125C31.595 33.1289 32.2283 32.8767 32.7031 32.4219C32.8302 32.3161 32.9925 32.2621 33.1576 32.2708C33.3228 32.2795 33.4785 32.3502 33.5938 32.4688ZM7.5 20.625C7.66576 20.625 7.82473 20.5592 7.94194 20.442C8.05915 20.3247 8.125 20.1658 8.125 20V6.25002C8.125 6.08426 8.19085 5.92529 8.30806 5.80808C8.42527 5.69087 8.58424 5.62502 8.75 5.62502H23.125V13.75C23.125 13.9158 23.1908 14.0747 23.3081 14.192C23.4253 14.3092 23.5842 14.375 23.75 14.375H31.875V20C31.875 20.1658 31.9408 20.3247 32.0581 20.442C32.1753 20.5592 32.3342 20.625 32.5 20.625C32.6658 20.625 32.8247 20.5592 32.9419 20.442C33.0592 20.3247 33.125 20.1658 33.125 20V13.7656C33.1189 13.597 33.0524 13.4362 32.9375 13.3125L24.1875 4.57814C24.1342 4.51396 24.0673 4.46244 23.9916 4.42731C23.916 4.39218 23.8334 4.37432 23.75 4.37502H8.75C8.25272 4.37502 7.77581 4.57256 7.42417 4.92419C7.07254 5.27583 6.875 5.75274 6.875 6.25002V20C6.875 20.1658 6.94085 20.3247 7.05806 20.442C7.17527 20.5592 7.33424 20.625 7.5 20.625ZM24.375 6.51564L30.9844 13.125H24.375V6.51564Z" fill="#1738A0"/>
</svg>
