<svg width="29" height="22" viewBox="0 0 29 22" fill="none" xmlns="http://www.w3.org/2000/svg">
<path d="M7.62131 21.9998C4.30941 21.9998 1.61523 19.4241 1.61523 16.2569C1.61523 13.0898 4.30941 10.5164 7.62131 10.5164C10.9332 10.5164 13.6278 13.0934 13.6278 16.2569C13.6278 19.4204 10.9332 21.9998 7.62131 21.9998V21.9998ZM7.62131 11.4246C4.80829 11.4246 2.51902 13.5933 2.51902 16.2587C2.51902 18.9242 4.80829 21.0933 7.62131 21.0933C10.4343 21.0933 12.7241 18.9246 12.7241 16.2569C12.7241 13.5892 10.4352 11.4246 7.62131 11.4246Z" fill="#1738A0"/>
<path d="M21.3737 21.9994C18.0618 21.9994 15.3672 19.4237 15.3672 16.2584C15.3672 13.0931 18.0618 10.5178 21.3737 10.5178C24.6856 10.5178 27.3802 13.0931 27.3802 16.2566C27.3802 19.4201 24.6856 21.9994 21.3737 21.9994ZM21.3737 11.4243C18.5598 11.4243 16.271 13.593 16.271 16.2584C16.271 18.9238 18.5598 21.093 21.3737 21.093C24.1876 21.093 26.4765 18.9243 26.4765 16.2566C26.4765 13.5889 24.1872 11.4243 21.3737 11.4243Z" fill="#1738A0"/>
<path d="M16.9007 13.5804C16.8345 13.5805 16.7691 13.5659 16.7091 13.5378C16.016 13.218 15.2621 13.0524 14.4991 13.0524C13.7362 13.0524 12.9823 13.218 12.2892 13.5378C12.2353 13.5643 12.1767 13.5797 12.1168 13.5832C12.0569 13.5867 11.9969 13.5782 11.9403 13.5582C11.8837 13.5382 11.8317 13.5071 11.7872 13.4667C11.7428 13.4263 11.7068 13.3774 11.6813 13.3229C11.6559 13.2684 11.6415 13.2094 11.6391 13.1493C11.6366 13.0892 11.6461 13.0291 11.667 12.9728C11.6879 12.9164 11.7198 12.8647 11.7609 12.8208C11.8019 12.7769 11.8512 12.7416 11.906 12.717C12.7192 12.3411 13.604 12.1465 14.4994 12.1465C15.3948 12.1465 16.2796 12.3411 17.0928 12.717C17.1857 12.7609 17.261 12.8352 17.3063 12.9277C17.3515 13.0202 17.3639 13.1253 17.3416 13.2259C17.3192 13.3264 17.2634 13.4164 17.1832 13.4808C17.1031 13.5453 17.0034 13.5804 16.9007 13.5804V13.5804Z" fill="#1738A0"/>
<path d="M2.06686 15.4104C1.99877 15.4103 1.93157 15.3948 1.87029 15.3651L0.861671 14.8747C0.526839 14.711 0.262852 14.4306 0.118993 14.086C-0.0248646 13.7414 -0.0387604 13.3561 0.0799006 13.0019L3.61413 1.15368C3.73834 0.776155 3.99248 0.455292 4.33104 0.248544C4.6696 0.0417955 5.07048 -0.0373376 5.46191 0.0253124C5.85334 0.0879623 6.20975 0.288304 6.46734 0.590469C6.72492 0.892634 6.86686 1.27689 6.86775 1.67444V2.1535C6.86775 2.27371 6.82014 2.38899 6.73539 2.47398C6.65064 2.55898 6.5357 2.60673 6.41586 2.60673C6.29601 2.60673 6.18107 2.55898 6.09632 2.47398C6.01157 2.38899 5.96396 2.27371 5.96396 2.1535V1.67444C5.96497 1.49177 5.90096 1.31473 5.78346 1.17516C5.66595 1.03559 5.50265 0.942643 5.32292 0.913037C5.14319 0.883431 4.95883 0.919106 4.80298 1.01365C4.64713 1.10819 4.53003 1.2554 4.47273 1.42879L0.942107 13.2766C0.889868 13.4233 0.893234 13.5841 0.951565 13.7284C1.0099 13.8727 1.11912 13.9905 1.25843 14.0593L2.26705 14.5492C2.35918 14.594 2.43343 14.6688 2.47765 14.7614C2.52186 14.854 2.53341 14.9589 2.51042 15.059C2.48742 15.159 2.43124 15.2483 2.35107 15.3121C2.2709 15.3759 2.17149 15.4106 2.06912 15.4104H2.06686Z" fill="#1738A0"/>
<path d="M26.9328 15.4092C26.8305 15.4094 26.7311 15.3747 26.6509 15.3109C26.5707 15.2471 26.5145 15.1578 26.4915 15.0578C26.4685 14.9577 26.4801 14.8528 26.5243 14.7602C26.5685 14.6676 26.6428 14.5928 26.7349 14.548L27.7435 14.0581C27.8806 13.9909 27.9887 13.8761 28.0477 13.7349C28.1066 13.5937 28.1124 13.4359 28.0639 13.2908L24.5197 1.41218C24.4583 1.24264 24.3392 1.10022 24.1835 1.00991C24.0278 0.919609 23.8453 0.887187 23.6682 0.918335C23.491 0.949484 23.3304 1.04221 23.2146 1.18026C23.0988 1.3183 23.0351 1.49283 23.0348 1.67324V2.1523C23.0348 2.2725 22.9872 2.38778 22.9025 2.47278C22.8177 2.55778 22.7028 2.60553 22.5829 2.60553C22.4631 2.60553 22.3481 2.55778 22.2634 2.47278C22.1787 2.38778 22.131 2.2725 22.131 2.1523V1.67324C22.1312 1.27652 22.2718 0.892744 22.5278 0.590349C22.7839 0.287954 23.1387 0.0866025 23.529 0.0222033C23.9193 -0.0421958 24.3197 0.0345444 24.6588 0.238738C24.998 0.442932 25.2538 0.761303 25.3806 1.13707L28.9248 13.0157C29.04 13.3685 29.0237 13.7512 28.8791 14.0929C28.7344 14.4346 28.4711 14.7121 28.138 14.8739L27.1294 15.3643C27.0681 15.3939 27.0009 15.4093 26.9328 15.4092Z" fill="#1738A0"/>
</svg>
