<svg width="12" height="22" viewBox="0 0 12 22" fill="none" xmlns="http://www.w3.org/2000/svg">
<path d="M0.261916 1.51162C0.0940925 1.3448 0 1.11988 0 0.885544C0 0.651205 0.0940925 0.426289 0.261916 0.259466C0.344441 0.17729 0.442808 0.11203 0.551294 0.0674858C0.65978 0.0229416 0.776218 0 0.893829 0C1.01144 0 1.12788 0.0229416 1.23636 0.0674858C1.34485 0.11203 1.44322 0.17729 1.52574 0.259466L11.7381 10.3739C11.9059 10.5407 12 10.7657 12 11C12 11.2343 11.9059 11.4593 11.7381 11.6261L1.52574 21.7405C1.44322 21.8227 1.34485 21.888 1.23636 21.9325C1.12788 21.9771 1.01144 22 0.893829 22C0.776218 22 0.65978 21.9771 0.551294 21.9325C0.442808 21.888 0.344441 21.8227 0.261916 21.7405C0.0940925 21.5737 0 21.3488 0 21.1145C0 20.8801 0.0940925 20.6552 0.261916 20.4884L9.57562 10.9994L0.261916 1.51162Z" fill="white"/>
</svg>
