<svg width="12" height="14" viewBox="0 0 12 14" fill="none" xmlns="http://www.w3.org/2000/svg">
<path d="M6 0C7.5913 0 9.11742 0.632141 10.2426 1.75736C11.3679 2.88258 12 4.4087 12 6C12 8.867 10.065 11.506 6.268 13.922C6.18787 13.9729 6.09492 13.9999 6 13.9999C5.90508 13.9999 5.81213 13.9729 5.732 13.922C1.935 11.506 0 8.867 0 6C0 4.4087 0.632141 2.88258 1.75736 1.75736C2.88258 0.632141 4.4087 0 6 0ZM6 1C4.67392 1 3.40215 1.52678 2.46447 2.46447C1.52678 3.40215 1 4.67392 1 6C1 8.325 2.54 10.558 5.68 12.692L6 12.905L6.32 12.692C9.46 10.558 11 8.325 11 6C11 4.67392 10.4732 3.40215 9.53553 2.46447C8.59785 1.52678 7.32608 1 6 1ZM6 4.5C6.19698 4.5 6.39204 4.5388 6.57403 4.61418C6.75601 4.68956 6.92137 4.80005 7.06066 4.93934C7.19995 5.07863 7.31044 5.24399 7.38582 5.42597C7.4612 5.60796 7.5 5.80302 7.5 6C7.5 6.19698 7.4612 6.39204 7.38582 6.57403C7.31044 6.75601 7.19995 6.92137 7.06066 7.06066C6.92137 7.19995 6.75601 7.31044 6.57403 7.38582C6.39204 7.4612 6.19698 7.5 6 7.5C5.60218 7.5 5.22064 7.34196 4.93934 7.06066C4.65804 6.77936 4.5 6.39782 4.5 6C4.5 5.60218 4.65804 5.22064 4.93934 4.93934C5.22064 4.65804 5.60218 4.5 6 4.5Z" fill="white"/>
</svg>
