<svg width="53" height="53" viewBox="0 0 53 53" fill="none" xmlns="http://www.w3.org/2000/svg">
<path d="M19 1H34V12.7692L31.2727 15.3846V18L34 20.6154V52H19V20.6154L21.7273 18V15.3846L19 12.7692V1Z" fill="#1738A0"/>
<path d="M17 4H4V17C4 17 5.17166 14.6642 7.5 13.5C10.5 12 17 12.2727 17 12.2727V4Z" fill="#1738A0"/>
<path d="M36 4H49V17C49 17 47.8283 14.6642 45.5 13.5C42.5 12 36 12.2727 36 12.2727V4Z" fill="#1738A0"/>
<path d="M16 24.1818C16 24.1818 14.8029 27.7272 10 27.7272C5.2 27.7272 4 23 4 23V49H10H16V24.1818Z" fill="#1738A0"/>
<path d="M37 24.1818C37 24.1818 38.1971 27.7272 43 27.7272C47.8 27.7272 49 23 49 23V49H43H37V24.1818Z" fill="#1738A0"/>
<path d="M16 14H17V16H16V14ZM9.97716 20.5725C9.44876 20.7332 8.89016 20.4351 8.72949 19.9067C8.56882 19.3783 8.86692 18.8197 9.39532 18.659L9.97716 20.5725ZM16 16H12.6117V14H16V16ZM12.6117 16C10.4573 16 9.09346 16.575 8.26716 17.3098C7.44236 18.0432 7.05123 19.0252 7.00469 20.0456C6.95751 21.0801 7.26904 22.1104 7.79807 22.8618C8.32644 23.6122 9.00034 24 9.68624 24V26C8.17801 26 6.95465 25.1378 6.16278 24.0132C5.37159 22.8896 4.93993 21.4199 5.00677 19.9544C5.07425 18.4748 5.65435 16.9568 6.93816 15.8152C8.22048 14.675 10.1027 14 12.6117 14V16ZM9.68624 24C12.0986 24 12.8582 22.6124 12.8287 21.7357C12.8128 21.264 12.5943 20.8637 12.2096 20.6269C11.8225 20.3886 11.1148 20.2266 9.97716 20.5725L9.39532 18.659C10.9145 18.1971 12.2517 18.3042 13.2582 18.9239C14.2673 19.5451 14.7913 20.5919 14.8275 21.6683C14.9024 23.8876 13.0051 26 9.68624 26V24Z" fill="#1738A0"/>
<path d="M37 14H36V16H37V14ZM43.0228 20.5725C43.5512 20.7332 44.1098 20.4351 44.2705 19.9067C44.4312 19.3783 44.1331 18.8197 43.6047 18.659L43.0228 20.5725ZM37 16H40.3883V14H37V16ZM40.3883 16C42.5427 16 43.9065 16.575 44.7328 17.3098C45.5576 18.0432 45.9488 19.0252 45.9953 20.0456C46.0425 21.0801 45.731 22.1104 45.2019 22.8618C44.6736 23.6122 43.9997 24 43.3138 24V26C44.822 26 46.0454 25.1378 46.8372 24.0132C47.6284 22.8896 48.0601 21.4199 47.9932 19.9544C47.9257 18.4748 47.3457 16.9568 46.0618 15.8152C44.7795 14.675 42.8973 14 40.3883 14V16ZM43.3138 24C40.9014 24 40.1418 22.6124 40.1713 21.7357C40.1872 21.264 40.4057 20.8637 40.7904 20.6269C41.1775 20.3886 41.8852 20.2266 43.0228 20.5725L43.6047 18.659C42.0855 18.1971 40.7483 18.3042 39.7418 18.9239C38.7327 19.5451 38.2087 20.5919 38.1725 21.6683C38.0976 23.8876 39.9949 26 43.3138 26V24Z" fill="#1738A0"/>
<rect x="1" y="1" width="51" height="51" stroke="#1738A0" stroke-width="2"/>
</svg>
