<svg width="40" height="40" viewBox="0 0 40 40" fill="none" xmlns="http://www.w3.org/2000/svg">
<path d="M7.5 20.625C7.66576 20.625 7.82473 20.5592 7.94194 20.442C8.05915 20.3247 8.125 20.1658 8.125 20V6.25002C8.125 6.08426 8.19085 5.92529 8.30806 5.80808C8.42527 5.69087 8.58424 5.62502 8.75 5.62502H23.125V13.75C23.125 13.9158 23.1908 14.0747 23.3081 14.192C23.4253 14.3092 23.5842 14.375 23.75 14.375H31.875V20C31.875 20.1658 31.9408 20.3247 32.0581 20.442C32.1753 20.5592 32.3342 20.625 32.5 20.625C32.6658 20.625 32.8247 20.5592 32.9419 20.442C33.0592 20.3247 33.125 20.1658 33.125 20V13.7656C33.1189 13.597 33.0524 13.4362 32.9375 13.3125L24.1875 4.57814C24.1342 4.51396 24.0673 4.46244 23.9916 4.42731C23.916 4.39218 23.8334 4.37432 23.75 4.37502H8.75C8.25272 4.37502 7.77581 4.57256 7.42417 4.92419C7.07254 5.27583 6.875 5.75274 6.875 6.25002V20C6.875 20.1658 6.94085 20.3247 7.05806 20.442C7.17527 20.5592 7.33424 20.625 7.5 20.625ZM24.375 6.51564L30.9844 13.125H24.375V6.51564ZM10 25.625H7.5C7.33424 25.625 7.17527 25.6909 7.05806 25.8081C6.94085 25.9253 6.875 26.0843 6.875 26.25V33.75C6.875 33.9158 6.94085 34.0747 7.05806 34.192C7.17527 34.3092 7.33424 34.375 7.5 34.375C7.66576 34.375 7.82473 34.3092 7.94194 34.192C8.05915 34.0747 8.125 33.9158 8.125 33.75V31.875H10C10.8288 31.875 11.6237 31.5458 12.2097 30.9597C12.7958 30.3737 13.125 29.5788 13.125 28.75C13.125 27.9212 12.7958 27.1264 12.2097 26.5403C11.6237 25.9543 10.8288 25.625 10 25.625ZM10 30.625H8.125V26.875H10C10.4973 26.875 10.9742 27.0726 11.3258 27.4242C11.6775 27.7758 11.875 28.2527 11.875 28.75C11.875 29.2473 11.6775 29.7242 11.3258 30.0758C10.9742 30.4275 10.4973 30.625 10 30.625ZM34.375 26.25C34.375 26.4158 34.3092 26.5747 34.1919 26.692C34.0747 26.8092 33.9158 26.875 33.75 26.875H30V30H33.125C33.2908 30 33.4497 30.0659 33.5669 30.1831C33.6842 30.3003 33.75 30.4593 33.75 30.625C33.75 30.7908 33.6842 30.9497 33.5669 31.067C33.4497 31.1842 33.2908 31.25 33.125 31.25H30V33.75C30 33.9158 29.9342 34.0747 29.8169 34.192C29.6997 34.3092 29.5408 34.375 29.375 34.375C29.2092 34.375 29.0503 34.3092 28.9331 34.192C28.8158 34.0747 28.75 33.9158 28.75 33.75V26.25C28.75 26.0843 28.8158 25.9253 28.9331 25.8081C29.0503 25.6909 29.2092 25.625 29.375 25.625H33.75C33.9158 25.625 34.0747 25.6909 34.1919 25.8081C34.3092 25.9253 34.375 26.0843 34.375 26.25ZM20 25.625H17.8125C17.6467 25.625 17.4878 25.6909 17.3706 25.8081C17.2533 25.9253 17.1875 26.0843 17.1875 26.25V33.75C17.1875 33.9158 17.2533 34.0747 17.3706 34.192C17.4878 34.3092 17.6467 34.375 17.8125 34.375H20C21.1603 34.375 22.2731 33.9141 23.0936 33.0936C23.9141 32.2731 24.375 31.1603 24.375 30C24.375 28.8397 23.9141 27.7269 23.0936 26.9064C22.2731 26.0859 21.1603 25.625 20 25.625ZM20 33.125H18.4375V26.875H20C20.8288 26.875 21.6237 27.2043 22.2097 27.7903C22.7958 28.3764 23.125 29.1712 23.125 30C23.125 30.8288 22.7958 31.6237 22.2097 32.2097C21.6237 32.7958 20.8288 33.125 20 33.125Z" fill="#EC7708"/>
</svg>
