<svg width="18" height="19" viewBox="0 0 18 19" fill="none" xmlns="http://www.w3.org/2000/svg">
<path fill-rule="evenodd" clip-rule="evenodd" d="M2.12066 0.574838C2.3175 0.378273 2.55387 0.225791 2.8141 0.127494C3.07433 0.0291976 3.35248 -0.0126679 3.63011 0.00467214C3.90774 0.0220121 4.17852 0.0981616 4.42449 0.228074C4.67047 0.357987 4.88603 0.538696 5.0569 0.758226L7.07626 3.35267C7.44639 3.82858 7.57688 4.4485 7.43063 5.03354L6.81526 7.49747C6.78345 7.62509 6.78517 7.75876 6.82025 7.88552C6.85534 8.01228 6.9226 8.12781 7.01551 8.2209L9.77963 10.9852C9.87282 11.0783 9.98853 11.1457 10.1155 11.1808C10.2425 11.2159 10.3763 11.2175 10.5041 11.1855L12.9667 10.5701C13.2554 10.4979 13.5567 10.4923 13.8479 10.5537C14.1391 10.6151 14.4125 10.7419 14.6475 10.9245L17.2417 12.9429C18.1743 13.6685 18.2598 15.0468 17.4251 15.8805L16.2618 17.0438C15.4294 17.8764 14.1851 18.242 13.0252 17.8336C10.0566 16.789 7.36119 15.0893 5.13902 12.8607C2.91073 10.6387 1.21122 7.94352 0.166541 4.97503C-0.240707 3.8162 0.124916 2.57073 0.957412 1.73817L2.12066 0.574838Z" fill="#EC7708"/>
</svg>
