<svg width="9" height="17" viewBox="0 0 9 17" fill="none" xmlns="http://www.w3.org/2000/svg">
<path d="M0.196437 1.16807C0.0705694 1.03916 0 0.865364 0 0.684284C0 0.503202 0.0705694 0.329405 0.196437 0.200497C0.258331 0.136995 0.332106 0.0865669 0.413471 0.0521469C0.494835 0.0177269 0.582163 0 0.670372 0C0.758581 0 0.845908 0.0177269 0.927272 0.0521469C1.00864 0.0865669 1.08241 0.136995 1.14431 0.200497L8.80356 8.01621C8.92943 8.14512 9 8.31892 9 8.5C9 8.68108 8.92943 8.85488 8.80356 8.98379L1.14431 16.7995C1.08241 16.863 1.00864 16.9134 0.927272 16.9479C0.845908 16.9823 0.758581 17 0.670372 17C0.582163 17 0.494835 16.9823 0.413471 16.9479C0.332106 16.9134 0.258331 16.863 0.196437 16.7995C0.0705694 16.6706 0 16.4968 0 16.3157C0 16.1346 0.0705694 15.9608 0.196437 15.8319L7.18172 8.49951L0.196437 1.16807Z" fill="#1738A0"/>
</svg>
