<svg width="22" height="22" viewBox="0 0 22 22" fill="none" xmlns="http://www.w3.org/2000/svg">
<path d="M21.8657 21.2176L15.1718 14.5236C16.5622 12.9799 17.4167 10.9445 17.4167 8.7083C17.4166 3.90659 13.5101 0 8.70834 0C3.90659 0 0 3.90659 0 8.70834C0 13.5101 3.90659 17.4167 8.70834 17.4167C10.9446 17.4167 12.9799 16.5622 14.5237 15.1718L21.2176 21.8657C21.3071 21.9552 21.4244 22 21.5417 22C21.6589 22 21.7762 21.9552 21.8658 21.8657C22.0448 21.6867 22.0448 21.3966 21.8657 21.2176ZM8.70834 16.5C4.41237 16.5 0.916695 13.0047 0.916695 8.70834C0.916695 4.41194 4.41237 0.916652 8.70834 0.916652C13.0043 0.916652 16.5 4.4119 16.5 8.70834C16.5 13.0048 13.0043 16.5 8.70834 16.5Z" fill="#F0993D"/>
</svg>
