<svg width="13" height="6" viewBox="0 0 13 6" fill="none" xmlns="http://www.w3.org/2000/svg">
<path d="M11.8577 0.140315C11.9516 0.226673 12.0044 0.343881 12.0046 0.466165C12.0048 0.588448 11.9523 0.705794 11.8587 0.792397L6.39438 5.85041C6.34327 5.89782 6.28251 5.93544 6.21559 5.96111C6.14866 5.98678 6.0769 6 6.00442 6C5.93194 6 5.86018 5.98678 5.79326 5.96111C5.72633 5.93544 5.66557 5.89782 5.61447 5.85041L0.152097 0.792397C0.104417 0.749793 0.066413 0.698857 0.0403015 0.64256C0.0141899 0.586264 0.000494144 0.525734 1.31267e-05 0.464503C-0.000467891 0.403272 0.0122755 0.342565 0.0374999 0.285925C0.0627243 0.229286 0.0999244 0.177847 0.14693 0.13461C0.193936 0.091373 0.249805 0.0572041 0.311279 0.0340967C0.372753 0.0109893 0.4386 -0.000593508 0.504979 2.3408e-05C0.571358 0.000640324 0.636939 0.0134446 0.697896 0.0376899C0.758852 0.0619351 0.813964 0.0971355 0.860016 0.141237L6.00542 4.90503L11.1518 0.141237C11.2454 0.0546603 11.3725 0.00592693 11.5051 0.00575397C11.6376 0.00558101 11.7649 0.0539827 11.8587 0.140315H11.8577Z" fill="#1738A0"/>
</svg>
