<svg width="9" height="17" viewBox="0 0 9 17" fill="none" xmlns="http://www.w3.org/2000/svg">
<path d="M8.80356 15.8319C8.92943 15.9608 9 16.1346 9 16.3157C9 16.4968 8.92943 16.6706 8.80356 16.7995C8.74167 16.863 8.66789 16.9134 8.58653 16.9479C8.50516 16.9823 8.41784 17 8.32963 17C8.24142 17 8.15409 16.9823 8.07273 16.9479C7.99136 16.9134 7.91759 16.863 7.85569 16.7995L0.196437 8.98379C0.07057 8.85488 0 8.68108 0 8.5C0 8.31892 0.07057 8.14512 0.196437 8.01621L7.85569 0.200496C7.91759 0.136996 7.99136 0.0865678 8.07273 0.052147C8.15409 0.0177262 8.24142 0 8.32963 0C8.41784 0 8.50516 0.0177262 8.58653 0.052147C8.66789 0.0865678 8.74167 0.136996 8.80356 0.200496C8.92943 0.329404 9 0.503203 9 0.684283C9 0.865364 8.92943 1.03916 8.80356 1.16807L1.81828 8.50049L8.80356 15.8319Z" fill="#04091A"/>
</svg>
