<svg width="24" height="20" viewBox="0 0 24 20" fill="none" xmlns="http://www.w3.org/2000/svg">
<path d="M21.534 5.58897C22.51 4.90663 23.331 4.05494 24 3.07426V3.07328C23.107 3.45826 22.157 3.71426 21.165 3.83832C22.185 3.23869 22.964 2.29641 23.33 1.16115C22.379 1.71943 21.329 2.11327 20.21 2.33383C19.307 1.38663 18.02 0.800781 16.616 0.800781C13.892 0.800781 11.699 2.97777 11.699 5.64608C11.699 6.03008 11.732 6.39931 11.813 6.75082C7.723 6.55389 4.103 4.62404 1.671 1.683C1.247 2.40866 0.997001 3.23869 0.997001 4.13174C0.997001 5.80952 1.874 7.29629 3.183 8.15783C2.392 8.14306 1.617 7.9166 0.960001 7.56115V7.61432C0.960001 9.96854 2.665 11.924 4.902 12.3749C4.501 12.4832 4.065 12.5344 3.612 12.5344C3.297 12.5344 2.979 12.5167 2.681 12.4517C3.318 14.3698 5.128 15.7807 7.278 15.827C5.604 17.1159 3.478 17.8927 1.177 17.8927C0.774001 17.8927 0.387 17.875 0 17.8268C2.18 19.2101 4.762 20.0008 7.548 20.0008C16.231 20.0008 21.89 12.8682 21.534 5.58897Z" fill="#1738A0"/>
</svg>
