<svg width="166" height="166" viewBox="0 0 166 166" fill="none" xmlns="http://www.w3.org/2000/svg">
<path d="M166 83C166 105.013 157.255 126.124 141.69 141.69C126.124 157.255 105.013 166 83 166C60.987 166 39.8757 157.255 24.3101 141.69C8.74462 126.124 0 105.013 0 83C0 60.987 8.74462 39.8757 24.3101 24.3101C39.8757 8.74462 60.987 0 83 0C105.013 0 126.124 8.74462 141.69 24.3101C157.255 39.8757 166 60.987 166 83ZM70.4463 52.8399C69.6706 52.2876 68.7579 51.9595 67.8081 51.8915C66.8583 51.8234 65.9082 52.0181 65.0617 52.4542C64.2152 52.8903 63.5051 53.551 63.0092 54.3638C62.5132 55.1766 62.2506 56.1103 62.25 57.0625V108.938C62.2506 109.89 62.5132 110.823 63.0092 111.636C63.5051 112.449 64.2152 113.11 65.0617 113.546C65.9082 113.982 66.8583 114.177 67.8081 114.109C68.7579 114.041 69.6706 113.712 70.4463 113.16L106.759 87.2226C107.431 86.7428 107.979 86.1092 108.358 85.3748C108.736 84.6403 108.933 83.8261 108.933 83C108.933 82.1739 108.736 81.3597 108.358 80.6252C107.979 79.8908 107.431 79.2572 106.759 78.7774L70.4463 52.8399Z" fill="white" fill-opacity="0.5"/>
</svg>
