<svg width="24" height="15" viewBox="0 0 24 15" fill="none" xmlns="http://www.w3.org/2000/svg">
<path d="M19.9157 8.71312C19.5277 8.23012 19.6387 8.01524 19.9157 7.58349C19.9207 7.57857 23.1238 3.21579 23.4538 1.73623L23.4558 1.73525C23.6198 1.19606 23.4558 0.799805 22.6628 0.799805H20.0387C19.3707 0.799805 19.0627 1.13988 18.8977 1.52036C18.8977 1.52036 17.5616 4.67268 15.6716 6.71607C15.0615 7.30651 14.7795 7.49577 14.4465 7.49577C14.2825 7.49577 14.0275 7.30651 14.0275 6.76732V1.73525C14.0275 1.08862 13.8405 0.799805 13.2875 0.799805H9.16132C8.74231 0.799805 8.4933 1.10143 8.4933 1.38236C8.4933 1.99548 9.43833 2.13643 9.53634 3.86144V7.60419C9.53634 8.42431 9.38533 8.57512 9.05032 8.57512C8.15829 8.57512 5.99321 5.40999 4.71017 1.78749C4.45116 1.08468 4.19815 0.80079 3.52512 0.80079H0.900032C0.151005 0.80079 0 1.14086 0 1.52135C0 2.19361 0.892031 5.53616 4.14815 9.95217C6.31822 12.9665 9.37433 14.5998 12.1544 14.5998C13.8255 14.5998 14.0295 14.2371 14.0295 13.6131C14.0295 10.7329 13.8785 10.4608 14.7155 10.4608C15.1035 10.4608 15.7716 10.6501 17.3316 12.104C19.1147 13.828 19.4077 14.5998 20.4057 14.5998H23.0298C23.7778 14.5998 24.1569 14.2371 23.9388 13.5214C23.4398 12.0163 20.0677 8.92012 19.9157 8.71312Z" fill="#1738A0"/>
</svg>
