<svg width="24" height="24" viewBox="0 0 24 24" fill="none" xmlns="http://www.w3.org/2000/svg">
<path d="M17.5071 14.307L17.4981 14.382C15.2991 13.286 15.0691 13.1401 14.7851 13.566C14.5881 13.861 14.0141 14.53 13.8411 14.728C13.6661 14.923 13.4921 14.938 13.1951 14.803C12.8951 14.653 11.9321 14.338 10.7921 13.318C9.90414 12.5231 9.30814 11.5481 9.13214 11.2481C8.83914 10.7421 9.45214 10.6701 10.0101 9.61411C10.1101 9.40412 10.0591 9.23912 9.98514 9.09012C9.91014 8.94012 9.31314 7.47015 9.06314 6.88416C8.82314 6.30017 8.57614 6.37417 8.39114 6.37417C7.81514 6.32417 7.39414 6.33217 7.02314 6.71816C5.40914 8.49213 5.81614 10.3221 7.19714 12.2681C9.91114 15.82 11.3571 16.474 14.0011 17.382C14.7151 17.609 15.3661 17.577 15.8811 17.503C16.4551 17.412 17.6481 16.782 17.8971 16.077C18.1521 15.372 18.1521 14.787 18.0771 14.652C18.0031 14.517 17.8071 14.442 17.5071 14.307Z" fill="#1738A0"/>
<path d="M20.52 3.44937C12.831 -3.9835 0.106 1.40741 0.101 11.8932C0.101 13.9892 0.65 16.0332 1.696 17.8381L0 24L6.335 22.348C14.24 26.618 23.996 20.9481 24 11.8992C24 8.72328 22.76 5.73433 20.505 3.48837L20.52 3.44937ZM22.002 11.8662C21.996 19.4991 13.617 24.266 6.99 20.3701L6.63 20.1561L2.88 21.1311L3.885 17.4861L3.646 17.1111C-0.478 10.5462 4.26 1.9664 12.072 1.9664C14.726 1.9664 17.217 3.00138 19.093 4.87635C20.968 6.73532 22.002 9.22627 22.002 11.8662Z" fill="#1738A0"/>
</svg>
