<svg width="24" height="24" viewBox="0 0 24 24" fill="none" xmlns="http://www.w3.org/2000/svg">
<path d="M17.5074 14.3068L17.4984 14.3818C15.2994 13.2858 15.0694 13.1398 14.7854 13.5658C14.5884 13.8608 14.0144 14.5298 13.8414 14.7278C13.6664 14.9228 13.4924 14.9378 13.1954 14.8028C12.8954 14.6528 11.9324 14.3378 10.7924 13.3178C9.90435 12.5228 9.30835 11.5478 9.13235 11.2478C8.83935 10.7418 9.45235 10.6698 10.0104 9.61387C10.1104 9.40387 10.0594 9.23887 9.98535 9.08988C9.91035 8.93988 9.31335 7.46991 9.06335 6.88392C8.82335 6.29993 8.57635 6.37392 8.39135 6.37392C7.81535 6.32393 7.39435 6.33193 7.02335 6.71792C5.40935 8.49189 5.81635 10.3219 7.19735 12.2678C9.91135 15.8198 11.3574 16.4737 14.0014 17.3817C14.7154 17.6087 15.3664 17.5767 15.8814 17.5027C16.4554 17.4117 17.6484 16.7817 17.8974 16.0768C18.1524 15.3718 18.1524 14.7868 18.0774 14.6518C18.0034 14.5168 17.8074 14.4418 17.5074 14.3068Z" fill="#6D85CD"/>
<path d="M20.52 3.44937C12.831 -3.9835 0.106 1.40741 0.101 11.8932C0.101 13.9892 0.65 16.0332 1.696 17.8381L0 24L6.335 22.348C14.24 26.618 23.996 20.9481 24 11.8992C24 8.72328 22.76 5.73433 20.505 3.48837L20.52 3.44937ZM22.002 11.8662C21.996 19.4991 13.617 24.266 6.99 20.3701L6.63 20.1561L2.88 21.1311L3.885 17.4861L3.646 17.1111C-0.478 10.5462 4.26 1.9664 12.072 1.9664C14.726 1.9664 17.217 3.00138 19.093 4.87635C20.968 6.73532 22.002 9.22627 22.002 11.8662Z" fill="#6D85CD"/>
</svg>
