<svg width="24" height="17" viewBox="0 0 24 17" fill="none" xmlns="http://www.w3.org/2000/svg">
<path d="M23.469 2.31471L23.499 2.50148C23.209 1.52091 22.426 0.764272 21.431 0.488872L21.41 0.484107C19.5391 1.30639e-05 12.0102 1.31697e-05 12.0102 1.31697e-05C12.0102 1.31697e-05 4.50024 -0.00951634 2.61026 0.484107C1.59628 0.764272 0.812285 1.52091 0.527288 2.48147L0.522288 2.50148C-0.176704 5.98067 -0.181704 10.1612 0.553288 13.8863L0.522288 13.6976C0.812285 14.6782 1.59528 15.4348 2.59026 15.7102L2.61126 15.715C4.48024 16.2 12.0112 16.2 12.0112 16.2C12.0112 16.2 19.5201 16.2 21.411 15.715C22.426 15.4348 23.21 14.6782 23.495 13.7176L23.5 13.6976C23.818 12.0795 24 10.2174 24 8.31538C24 8.24581 24 8.17529 23.999 8.10478C24 8.03998 24 7.96279 24 7.8856C24 5.98258 23.818 4.12053 23.469 2.31471ZM9.60818 11.5792V4.6294L15.8741 8.10954L9.60818 11.5792Z" fill="#1738A0"/>
</svg>
